<?xml version="1.0" encoding="iso-8859-1"?>
<!-- Generator: Adobe Illustrator 19.0.0, SVG Export Plug-In . SVG Version: 6.00 Build 0)  -->
<svg version="1.1" id="Capa_1" xmlns="http://www.w3.org/2000/svg" xmlns:xlink="http://www.w3.org/1999/xlink" x="0px" y="0px"
	 viewBox="0 0 512 512" style="enable-background:new 0 0 512 512;" xml:space="preserve">
<circle style="fill:#3562BC;" cx="256" cy="267" r="245"/>
<g>
	<path style="fill:#CC8250;" d="M186.043,166.469h-8.146c-2.357,0-4.284,1.927-4.284,4.283v4.284c0,2.356,1.927,4.284,4.284,4.284
		h9.971C186.815,175.173,186.193,170.877,186.043,166.469z"/>
	<path style="fill:#CC8250;" d="M189.106,183.604h-9.029c-2.356,0-4.284,1.927-4.284,4.284v4.284c0,2.355,1.928,4.283,4.284,4.283
		h15.041C192.645,192.415,190.611,188.117,189.106,183.604z"/>
	<path style="fill:#CC8250;" d="M334.765,166.469h-8.146c-0.149,4.408-0.772,8.704-1.825,12.851h9.971
		c2.356,0,4.284-1.928,4.284-4.284v-4.284C339.048,168.396,337.121,166.469,334.765,166.469z"/>
	<path style="fill:#CC8250;" d="M332.584,183.604h-9.029c-1.505,4.514-3.539,8.812-6.012,12.851h15.041
		c2.356,0,4.283-1.928,4.283-4.283v-4.284C336.867,185.531,334.94,183.604,332.584,183.604z"/>
</g>
<g>
	<path style="fill:#FFBB88;" d="M242.94,100.427c2.879-10.514,4.592-23.634,4.592-37.872C247.532,28.007,237.466,0,225.049,0
		c-12.418,0-22.484,28.007-22.484,62.555c0,21.172,3.784,39.874,9.57,51.192C220.914,107.159,231.43,102.491,242.94,100.427z"/>
	<path style="fill:#FFBB88;" d="M300.527,113.748c5.786-11.318,9.57-30.02,9.57-51.192C310.097,28.007,300.031,0,287.613,0
		s-22.484,28.007-22.484,62.555c0,14.238,1.713,27.358,4.592,37.872C281.232,102.491,291.748,107.159,300.527,113.748z"/>
</g>
<path style="fill:#EBAA48;" d="M220.993,108.084c3.22-1.741,6.6-3.252,10.118-4.508c2.484-6.945,6.082-20.54,6.082-41.021
	c0-24.553-5.171-39.219-7.395-44.385c-0.817-1.896-2.683-3.126-4.748-3.126h-0.001c-2.065,0-3.932,1.23-4.748,3.125
	c-2.224,5.165-7.397,19.831-7.397,44.385c0,24.553,5.172,39.218,7.396,44.382C220.48,107.356,220.72,107.736,220.993,108.084z"/>
<path style="fill:#EF9614;" d="M220.993,108.084c2.673-1.445,5.45-2.74,8.331-3.854C226.839,97.515,223,83.726,223,62.555
	c0-23.514,4.742-37.953,7.097-43.671c-0.104-0.253-0.205-0.495-0.299-0.713c-0.817-1.896-2.683-3.126-4.748-3.126h-0.001
	c-2.065,0-3.932,1.23-4.748,3.125c-2.224,5.165-7.397,19.831-7.397,44.385c0,24.553,5.172,39.218,7.396,44.382
	C220.48,107.356,220.72,107.736,220.993,108.084z"/>
<path style="fill:#EBAA48;" d="M291.668,108.084c0.273-0.348,0.513-0.728,0.693-1.146c2.224-5.165,7.396-19.829,7.396-44.382
	s-5.171-39.219-7.395-44.385c-0.816-1.896-2.684-3.126-4.749-3.126l0,0c-2.065,0-3.931,1.23-4.748,3.125
	c-2.224,5.165-7.397,19.828-7.397,44.385c0,20.482,3.598,34.076,6.082,41.021C285.068,104.832,288.448,106.343,291.668,108.084z"/>
<path style="fill:#EF9614;" d="M291.668,108.084c0.273-0.348,0.513-0.728,0.693-1.146c0.116-0.27,0.242-0.571,0.373-0.893
	c-2.379-5.836-7.023-20.217-7.023-43.489c0-23.275,4.645-37.656,7.024-43.492c-0.131-0.321-0.256-0.623-0.373-0.893
	c-0.816-1.896-2.684-3.126-4.749-3.126l0,0c-2.065,0-3.931,1.23-4.748,3.125c-2.224,5.165-7.397,19.828-7.397,44.385
	c0,20.482,3.598,34.076,6.082,41.021C285.068,104.832,288.448,106.343,291.668,108.084z"/>
<path style="fill:#FFBB88;" d="M310.214,234c-3.713-6.091-8.415-11.512-13.904-16.017c-11.362,7.3-25.137,11.592-39.979,11.592
	c-14.842,0-28.617-4.292-39.979-11.592c-5.489,4.504-10.192,9.926-13.904,16.017H310.214z"/>
<path style="fill:#EBAA48;" d="M223.19,234c1.994-3.267,4.271-6.34,6.806-9.181c-4.838-1.817-9.409-4.114-13.645-6.835
	c-5.489,4.504-10.192,9.926-13.904,16.017L223.19,234L223.19,234z"/>
<rect x="163.27" y="296" style="fill:#06064C;" width="186.12" height="136"/>
<rect x="163.27" y="296" style="fill:#000011;" width="20.727" height="136"/>
<rect x="163.27" y="275" style="fill:#FFC610;" width="186.12" height="22.783"/>
<rect x="163.27" y="275" style="fill:#FFAF10;" width="20.727" height="22.783"/>
<path style="fill:#000011;" d="M147.764,258v13.07c0,2.75,2.25,5,5,5h207.134c2.75,0,5-2.25,5-5V258H147.764z"/>
<path style="fill:#06064C;" d="M418.664,254.526c0,2.75-2.25,5-5,5H98.998c-2.75,0-5-2.25-5-5v-16.883c0-2.75,2.25-5,5-5h314.667
	c2.75,0,5,2.25,5,5L418.664,254.526L418.664,254.526z"/>
<path style="fill:#000011;" d="M125,254.526v-16.883c0-2.75,2.25-5,5-5H98.998c-2.75,0-5,2.25-5,5v16.883c0,2.75,2.25,5,5,5H130
	C127.25,259.526,125,257.276,125,254.526z"/>
<ellipse style="fill:#FFD3B6;" cx="256.33" cy="164.4" rx="71.34" ry="66.17"/>
<path style="fill:#FFBB88;" d="M205.312,164.401c0-33.345,26.595-60.917,61.181-65.494c-3.321-0.439-6.711-0.68-10.163-0.68
	c-39.402,0-71.344,29.627-71.344,66.174c0,36.546,31.942,66.174,71.344,66.174c3.452,0,6.842-0.24,10.163-0.68
	C231.907,225.318,205.312,197.746,205.312,164.401z"/>
<path style="fill:#FFFFFF;" d="M265.851,203.498h-19.44c-1.964,0-3.841-0.363-5.589-0.996v5.525c0,2.477,2.026,4.503,4.503,4.503
	h6.304c2.477,0,4.503-2.026,4.503-4.503c0,2.477,2.026,4.503,4.502,4.503h6.304c2.477,0,4.503-2.026,4.503-4.503v-5.525
	C269.691,203.135,267.815,203.498,265.851,203.498z"/>
<path style="fill:#FFBB88;" d="M283.347,187.001c0,9.663-7.833,17.497-17.497,17.497h-19.44c-9.663,0-17.496-7.834-17.496-17.497
	l0,0c0-9.664,7.833-17.497,17.496-17.497h19.44C275.515,169.504,283.347,177.337,283.347,187.001L283.347,187.001z"/>
<path style="fill:#EBAA48;" d="M245,187.001c0-9.664,7.833-17.497,17.497-17.497h-16.086c-9.663,0-17.496,7.833-17.496,17.497
	c0,9.663,7.833,17.497,17.496,17.497h16.086C252.833,204.498,245,196.664,245,187.001z"/>
<g>
	<circle style="fill:#84362C;" cx="223.71" cy="164.1" r="9.01"/>
	<circle style="fill:#84362C;" cx="285.85" cy="164.1" r="9.01"/>
	<path style="fill:#84362C;" d="M268.738,177.609c0,4.477-3.628,8.105-8.105,8.105h-9.005c-4.477,0-8.105-3.628-8.105-8.105l0,0
		c0-4.477,3.628-8.105,8.105-8.105h9.005C265.11,169.504,268.738,173.133,268.738,177.609L268.738,177.609z"/>
</g>
<path style="fill:#06064C;" d="M408.243,175.588l48.727-48.727c-5.28-7.558-10.974-14.802-17.051-21.703l-51.052,51.052
	L408.243,175.588z"/>
<rect x="377.492" y="160.457" transform="matrix(0.7071 -0.7071 0.7071 0.7071 -8.8328 326.9925)" style="fill:#FFAF10;" width="25.614" height="27.403"/>
<path style="fill:#83A8EA;" d="M372.403,172.673l-24.176,24.176c-2.011,2.011-2.011,5.301,0,7.311l12.066,12.066
	c2.011,2.011,5.301,2.011,7.311,0l24.176-24.176L372.403,172.673z"/>
<g>
	<path style="fill:#FFFFFF;" d="M129.773,192.318c-1.498,0-2.796-1.038-3.126-2.499c-2.584-11.438-4.03-12.883-15.467-15.467
		c-1.461-0.33-2.499-1.628-2.499-3.126s1.038-2.796,2.499-3.127c11.437-2.584,12.883-4.03,15.467-15.467
		c0.33-1.462,1.628-2.499,3.126-2.499c1.499,0,2.796,1.037,3.127,2.499c2.584,11.437,4.03,12.883,15.467,15.467
		c1.461,0.331,2.499,1.629,2.499,3.127s-1.038,2.796-2.499,3.126c-11.438,2.584-12.883,4.03-15.467,15.467
		C132.569,191.281,131.271,192.318,129.773,192.318z"/>
	<path style="fill:#FFFFFF;" d="M361.382,120.975c-1.278,0-2.386-0.885-2.667-2.132c-2.205-9.755-3.438-10.988-13.192-13.192
		c-1.246-0.281-2.132-1.389-2.132-2.667s0.885-2.385,2.132-2.666c9.755-2.205,10.988-3.438,13.192-13.193
		c0.281-1.247,1.389-2.131,2.667-2.131c1.278,0,2.385,0.885,2.667,2.131c2.204,9.755,3.438,10.988,13.193,13.193
		c1.247,0.281,2.131,1.389,2.131,2.666s-0.885,2.386-2.131,2.667c-9.755,2.204-10.989,3.437-13.193,13.192
		C363.768,120.089,362.66,120.975,361.382,120.975z"/>
</g>
<path style="fill:#FFC248;" d="M51.191,143.515c-1.278,0-2.386-0.885-2.667-2.131c-2.205-9.756-3.438-10.989-13.193-13.193
	c-1.246-0.282-2.131-1.389-2.131-2.666c0-1.278,0.885-2.386,2.131-2.667c9.755-2.204,10.988-3.438,13.193-13.192
	c0.281-1.247,1.389-2.132,2.667-2.132c1.277,0,2.385,0.885,2.667,2.132c2.204,9.755,3.438,10.988,13.193,13.192
	c1.246,0.281,2.131,1.389,2.131,2.667s-0.885,2.385-2.131,2.666c-9.755,2.204-10.989,3.437-13.193,13.193
	C53.577,142.63,52.469,143.515,51.191,143.515z"/>
<path style="fill:#FFC610;" d="M137.316,81.469c-2.122,0-3.961-1.47-4.429-3.54c-3.661-16.201-5.709-18.248-21.909-21.909
	c-2.07-0.468-3.539-2.307-3.539-4.429s1.47-3.961,3.539-4.429c16.201-3.66,18.248-5.708,21.909-21.909
	c0.467-2.07,2.307-3.54,4.429-3.54s3.962,1.47,4.429,3.54c3.661,16.2,5.709,18.249,21.909,21.909c2.07,0.467,3.54,2.307,3.54,4.429
	s-1.47,3.961-3.54,4.429c-16.2,3.661-18.249,5.708-21.909,21.909C141.278,79.999,139.438,81.469,137.316,81.469z"/>
<path style="fill:#FFAF10;" d="M411.644,48.39c-1.719,0-3.208-1.19-3.586-2.867c-2.965-13.12-4.623-14.777-17.742-17.742
	c-1.677-0.378-2.867-1.868-2.867-3.586c0-1.719,1.19-3.208,2.867-3.586c13.119-2.965,14.777-4.623,17.742-17.742
	C408.435,1.19,409.925,0,411.644,0c1.718,0,3.208,1.19,3.586,2.867c2.964,13.118,4.623,14.776,17.742,17.742
	c1.676,0.378,2.866,1.868,2.866,3.586s-1.19,3.207-2.866,3.586c-13.119,2.965-14.778,4.623-17.742,17.742
	C414.852,47.199,413.362,48.39,411.644,48.39z"/>
<path style="fill:#D9EAFC;" d="M397,431H115c-2.75,0-5,2.25-5,5v27.755C150.775,494.063,201.291,512,256,512
	s105.225-17.938,146-48.245V436C402,433.25,399.75,431,397,431z"/>
<path style="fill:#C3DDF4;" d="M140,436c0-2.75,2.25-5,5-5h-30c-2.75,0-5,2.25-5,5v27.755c9.493,7.056,19.52,13.432,30,19.077V436z"
	/>
<g>
</g>
<g>
</g>
<g>
</g>
<g>
</g>
<g>
</g>
<g>
</g>
<g>
</g>
<g>
</g>
<g>
</g>
<g>
</g>
<g>
</g>
<g>
</g>
<g>
</g>
<g>
</g>
<g>
</g>
</svg>
